<svg id="svg" version="1.1" xmlns="http://www.w3.org/2000/svg" xmlns:xlink="http://www.w3.org/1999/xlink" width="400" height="400" viewBox="0, 0, 400,400"><g id="svgg"><path id="path0" d="M72.821 57.891 C 72.236 58.122,68.555 60.967,66.900 62.468 L 66.000 63.284 66.000 130.045 L 66.000 196.806 68.831 199.576 C 74.859 205.473,79.056 204.932,86.400 197.309 C 93.277 190.170,99.483 183.461,102.868 179.507 C 106.022 175.821,109.310 172.197,118.463 162.316 C 120.646 159.960,123.355 156.900,124.484 155.516 C 125.613 154.132,127.744 151.740,129.221 150.200 C 130.698 148.660,133.457 145.615,135.353 143.434 L 138.800 139.468 138.800 101.958 C 138.800 77.785,138.660 64.361,138.406 64.204 C 138.190 64.070,137.875 63.453,137.706 62.834 C 137.516 62.135,136.425 60.926,134.834 59.653 L 132.269 57.600 102.834 57.632 C 86.646 57.649,73.140 57.766,72.821 57.891 M217.450 227.034 C 214.483 227.976,212.760 229.247,209.805 232.672 C 208.321 234.393,204.462 238.500,201.230 241.800 C 196.207 246.927,192.013 251.316,177.267 266.874 C 174.192 270.119,173.846 270.720,173.846 272.820 C 173.846 275.578,175.637 278.741,179.600 282.980 C 181.470 284.980,184.620 288.395,186.600 290.567 C 188.580 292.740,191.280 295.657,192.600 297.049 C 193.920 298.441,195.600 300.350,196.333 301.290 C 197.066 302.231,199.239 304.710,201.161 306.800 C 203.084 308.890,205.994 312.128,207.628 313.997 C 209.263 315.865,211.774 318.655,213.209 320.197 C 214.644 321.738,216.712 324.080,217.805 325.400 C 218.899 326.720,220.965 329.072,222.397 330.626 C 223.828 332.180,226.440 335.120,228.200 337.159 C 229.960 339.198,231.886 341.121,232.480 341.433 C 234.070 342.268,308.969 342.282,310.913 341.448 C 316.498 339.051,317.604 330.383,313.075 324.497 C 311.654 322.650,304.215 314.411,303.237 313.600 C 303.104 313.490,302.463 312.680,301.812 311.800 C 301.161 310.920,298.906 308.400,296.802 306.200 C 294.698 304.000,291.902 300.947,290.588 299.416 C 289.275 297.885,286.310 294.631,284.000 292.185 C 281.690 289.739,279.260 287.062,278.600 286.237 C 276.729 283.899,275.759 282.812,272.859 279.800 C 271.376 278.260,268.466 275.110,266.392 272.800 C 264.318 270.490,261.357 267.241,259.811 265.579 C 253.478 258.772,252.529 257.706,250.926 255.596 C 250.005 254.384,248.655 252.852,247.926 252.191 C 247.197 251.529,244.655 248.831,242.279 246.194 C 239.902 243.557,236.260 239.579,234.185 237.353 C 232.110 235.127,229.602 232.322,228.612 231.120 C 225.448 227.277,221.376 225.787,217.450 227.034 " stroke="none" fill="#05bbac" fill-rule="evenodd"></path><path id="path1" d="M242.200 58.350 C 239.850 61.140,233.027 68.656,229.990 71.800 C 228.077 73.780,225.866 76.269,225.076 77.332 C 224.286 78.394,221.229 81.814,218.283 84.932 C 215.336 88.049,211.663 92.040,210.119 93.800 C 208.576 95.560,206.252 98.078,204.956 99.397 C 203.660 100.715,200.859 103.815,198.731 106.287 C 196.603 108.759,193.523 112.180,191.886 113.891 C 190.249 115.601,187.220 118.880,185.155 121.178 C 183.090 123.476,180.025 126.806,178.344 128.578 C 176.664 130.350,173.989 133.330,172.399 135.200 C 170.810 137.070,167.944 140.220,166.031 142.200 C 164.118 144.180,161.303 147.230,159.776 148.978 C 158.249 150.726,154.988 154.246,152.528 156.801 C 150.068 159.355,147.368 162.360,146.528 163.478 C 145.688 164.596,143.200 167.377,141.000 169.659 C 138.800 171.941,135.671 175.336,134.046 177.204 C 132.421 179.072,129.255 182.490,127.011 184.800 C 124.767 187.110,122.164 189.990,121.226 191.200 C 120.288 192.410,118.054 194.930,116.261 196.800 C 114.467 198.670,110.300 203.161,107.000 206.781 C 103.700 210.400,100.190 214.199,99.200 215.223 C 98.210 216.246,96.461 218.235,95.314 219.642 C 94.166 221.049,91.939 223.550,90.366 225.200 C 88.792 226.850,85.321 230.624,82.652 233.588 C 79.983 236.551,76.135 240.711,74.100 242.833 C 72.066 244.955,70.038 247.153,69.594 247.717 C 69.150 248.281,68.159 249.131,67.392 249.605 L 65.996 250.467 66.098 293.275 L 66.200 336.083 69.170 338.141 L 72.139 340.200 75.570 340.144 C 80.847 340.058,82.463 339.163,87.840 333.348 C 90.238 330.755,94.138 326.629,96.506 324.179 C 98.874 321.729,101.636 318.662,102.644 317.362 C 103.652 316.063,106.523 312.898,109.023 310.328 C 111.524 307.758,114.629 304.428,115.923 302.928 C 117.217 301.428,120.257 298.130,122.679 295.600 C 125.101 293.070,128.220 289.650,129.610 288.000 C 131.000 286.350,133.606 283.470,135.401 281.600 C 137.196 279.730,140.259 276.400,142.207 274.200 C 144.155 272.000,148.307 267.500,151.434 264.200 C 154.561 260.900,157.739 257.380,158.497 256.378 C 159.256 255.376,160.939 253.478,162.238 252.160 C 163.537 250.843,166.850 247.258,169.600 244.193 C 172.350 241.129,175.839 237.357,177.354 235.811 C 178.869 234.265,181.823 231.020,183.919 228.600 C 186.015 226.180,189.577 222.220,191.835 219.800 C 194.093 217.380,198.339 212.830,201.270 209.690 C 204.202 206.549,207.476 202.949,208.547 201.690 C 209.618 200.430,213.418 196.250,216.991 192.400 C 220.564 188.550,224.092 184.680,224.829 183.800 C 225.567 182.920,228.652 179.644,231.685 176.521 C 234.718 173.397,237.200 170.637,237.200 170.387 C 237.200 170.138,239.135 167.923,241.500 165.466 C 243.865 163.008,247.330 159.298,249.200 157.219 C 251.070 155.141,254.502 151.435,256.826 148.984 C 259.151 146.533,262.187 143.194,263.574 141.564 C 264.960 139.934,268.026 136.530,270.387 134.000 C 272.748 131.470,276.820 127.060,279.436 124.200 C 282.052 121.340,285.994 117.143,288.196 114.873 C 290.398 112.603,292.323 110.415,292.473 110.010 C 292.624 109.606,294.975 106.963,297.699 104.137 C 300.423 101.312,304.606 96.840,306.994 94.200 C 309.382 91.560,313.750 86.953,316.700 83.963 C 319.650 80.973,322.274 78.149,322.532 77.689 C 322.789 77.228,323.683 75.853,324.517 74.632 C 326.104 72.310,327.188 69.403,327.196 67.449 C 327.200 66.229,324.919 61.200,324.361 61.200 C 324.179 61.200,323.027 60.382,321.799 59.382 L 319.568 57.565 281.284 57.482 L 243.000 57.400 242.200 58.350 " stroke="none" fill="#05bbac" fill-rule="evenodd"></path></g></svg>